<svg width="448" height="448" viewBox="0 0 448 448" fill="none" xmlns="http://www.w3.org/2000/svg">
<path d="M48 397.28L74.6 336H75.24L101.83 397.28H88.37L71.37 354.18L79.78 348.42L59.46 397.28H48ZM66.18 376H83.94L88.02 385.77H62.58L66.18 376Z" fill="black"/>
<path d="M128.26 338.319C132.505 338.195 136.724 339.032 140.6 340.769C143.792 342.244 146.471 344.64 148.29 347.649C150.115 350.856 151.031 354.5 150.94 358.189C150.932 360.645 150.568 363.087 149.86 365.439C149.153 367.842 147.984 370.083 146.42 372.039C144.72 374.111 142.55 375.746 140.09 376.809C137.011 378.093 133.694 378.706 130.36 378.609H122.02V397.279H110.4V338.279L128.26 338.319ZM130.26 367.319C131.779 367.37 133.288 367.055 134.66 366.399C135.752 365.853 136.698 365.054 137.42 364.069C138.066 363.186 138.556 362.198 138.87 361.149C139.137 360.294 139.285 359.405 139.31 358.509C139.283 357.713 139.19 356.92 139.03 356.139C138.81 355.081 138.414 354.067 137.86 353.139C137.211 352.062 136.286 351.178 135.18 350.579C133.681 349.83 132.013 349.485 130.34 349.579H122V367.359L130.26 367.319Z" fill="black"/>
<path d="M161.34 338.32H201.55V349.54H172.94V362.11H198.25V373.33H172.94V386.06H202.65V397.28H161.34V338.32Z" fill="black"/>
<path d="M209.08 397.279L230.08 364.279L235.51 375.999L223.51 397.309L209.08 397.279ZM209.88 338.279H224.7L263.15 397.279H248.15L209.88 338.279ZM236.32 359.999L248.49 338.369H262.59L242.32 369.999L236.32 359.999Z" fill="black"/>
<path d="M272.76 338.32H284.38V397.32H272.76V338.32Z" fill="black"/>
<path d="M308.48 338.32L325.71 380.78L318.94 379.41L334.56 338.32H348.34L321.46 400L294.55 338.32H308.48Z" fill="black"/>
<path d="M358.55 338.32H398.76V349.54H370.16V362.11H395.47V373.33H370.16V386.06H399.88V397.28H358.55V338.32Z" fill="black"/>
<path d="M224 48L96 304L160 264L224 128L243.42 169.26L277.36 154.71L224 48Z" fill="black"/>
<path d="M262.34 209.47L288 264L352 304L294.64 189.28L262.34 209.47Z" fill="black"/>
<path d="M96 304L416 104L136 224L96 304Z" fill="url(#paint0_linear_590_2766)"/>
<defs>
<linearGradient id="paint0_linear_590_2766" x1="96" y1="304" x2="416" y2="104" gradientUnits="userSpaceOnUse">
<stop stop-color="#00D5D5"/>
<stop offset="0.33" stop-color="#D5D500"/>
<stop offset="0.66" stop-color="#D50000"/>
<stop offset="1" stop-color="#890000"/>
</linearGradient>
</defs>
</svg>
